<svg width="161" height="26" viewBox="0 0 161 26" fill="none" xmlns="http://www.w3.org/2000/svg">
<path d="M10.9368 0.238281H16.039V17.8573H10.9368V10.8335H5.1022V17.8573H0V0.238281H5.1022V7.07162H10.9368V0.238281Z" fill="#555555"/>
<path d="M31.0541 0.238281H36.5225L28.8082 17.8573H23.3398L26.6355 10.2859H21.9239L17.6273 0.238281H23.4619L27.2458 9.90495H27.2946L31.0541 0.238281Z" fill="#555555"/>
<path d="M46.5742 7.2859C50.9684 7.2859 53.5805 9.14305 53.5805 12.3097C53.5805 15.8097 50.7975 17.8573 46.1103 17.8573H37.8345V0.238281H47.0868C50.4069 0.238281 52.3599 1.57161 52.3599 3.80971C52.3599 5.95257 50.0407 7.23828 46.1103 7.23828V7.2859H46.5742ZM47.0624 5.59543C47.0624 4.59543 46.4277 4.00019 45.3535 4.00019H42.9367V7.23828H45.3535C46.4277 7.23828 47.0624 6.61924 47.0624 5.59543ZM46.33 14.0954C47.5507 14.0954 48.283 13.4288 48.283 12.3097C48.283 11.1907 47.5507 10.524 46.33 10.524H42.9367V14.0954H46.33Z" fill="#555555"/>
<path d="M69.7995 14.0002L71.8258 17.8573H66.1621L63.0129 11.2383H60.8646V17.8573H55.7624V0.238281H63.4767C68.2372 0.238281 71.0446 2.21447 71.0446 5.50019C71.0446 9.09543 68.2372 11.1907 63.4767 11.1907V11.2383C66.4795 11.2383 68.8719 12.2383 69.7995 14.0002ZM60.8646 7.71447H63.6964C65.0147 7.71447 65.7715 7.024 65.7715 5.85733C65.7715 4.69066 65.0147 4.00019 63.6964 4.00019H60.8646V7.71447Z" fill="#555555"/>
<path d="M73.6426 17.8573V0.238281H78.7448V17.8573H73.6426Z" fill="#555555"/>
<path d="M81.9629 17.8573V0.238281H88.6274C94.7306 0.238281 98.368 3.524 98.368 9.04781C98.368 14.5716 94.7306 17.8573 88.6274 17.8573H81.9629ZM87.065 14.0954H88.8716C91.5081 14.0954 93.0705 12.2145 93.0705 9.04781C93.0705 5.88114 91.5081 4.00019 88.8716 4.00019H87.065V14.0954Z" fill="#555555"/>
<path d="M117.302 10.7143C116.838 15.3333 113.713 18.0952 108.88 18.0952C103.192 18.0952 99.8228 14.7381 99.8228 9.04762C99.8228 3.35715 103.192 0 108.88 0C113.713 0 116.838 2.76191 117.302 7.40477H112.444C112.151 5.19048 110.808 3.85715 108.88 3.85715C106.512 3.85715 105.096 5.78572 105.096 9.04762C105.096 12.3095 106.512 14.2381 108.88 14.2381C110.882 14.2381 112.151 12.9286 112.444 10.7143H117.302Z" fill="#009F8F"/>
<path d="M133.477 14L135.503 17.8572H129.84L126.691 11.2381H124.542V17.8572H119.44V0.238097H127.154C131.915 0.238097 134.722 2.21429 134.722 5.5C134.722 9.09524 131.915 11.1905 127.154 11.1905V11.2381C130.157 11.2381 132.55 12.2381 133.477 14ZM124.542 7.71429H127.374C128.692 7.71429 129.449 7.02381 129.449 5.85715C129.449 4.69048 128.692 4 127.374 4H124.542V7.71429Z" fill="#009F8F"/>
<path d="M160.268 0.238097L161 17.8572H155.898L155.288 0.619048H155.239L153.091 17.8572H144.302L142.471 0.619048H142.422L141.812 17.8572H136.978L137.711 0.238097H147.476L148.843 17.4762H148.892L150.527 0.238097H160.268Z" fill="#009F8F"/>
<path d="M100.921 25.9263V22.2713H103.346V22.9622H101.729V23.6795H103.165V24.3546H101.729V25.2354H103.465V25.9263H100.921Z" fill="#555555"/>
<path d="M105.36 24.5181C105.36 24.7607 105.414 24.9559 105.521 25.1035C105.628 25.2512 105.787 25.3251 105.998 25.3251C106.067 25.3251 106.131 25.3233 106.189 25.3198C106.248 25.3128 106.297 25.3057 106.335 25.2987V23.8694C106.286 23.8377 106.222 23.8113 106.143 23.7902C106.067 23.7692 105.989 23.7586 105.91 23.7586C105.543 23.7586 105.36 24.0118 105.36 24.5181ZM107.107 25.8367C107.038 25.8578 106.958 25.8789 106.868 25.9C106.779 25.9175 106.683 25.9334 106.583 25.9474C106.487 25.9615 106.386 25.972 106.283 25.9791C106.183 25.9896 106.086 25.9949 105.993 25.9949C105.768 25.9949 105.568 25.9615 105.391 25.8947C105.215 25.8279 105.067 25.7329 104.946 25.6099C104.825 25.4833 104.732 25.3321 104.666 25.1563C104.604 24.977 104.573 24.7765 104.573 24.555C104.573 24.33 104.6 24.1278 104.656 23.9485C104.711 23.7656 104.79 23.6109 104.894 23.4843C104.998 23.3578 105.124 23.2611 105.272 23.1943C105.424 23.1274 105.597 23.094 105.79 23.094C105.898 23.094 105.993 23.1046 106.075 23.1257C106.162 23.1468 106.248 23.1767 106.335 23.2154V21.9601L107.107 21.8335V25.8367Z" fill="#555555"/>
<path d="M110.908 25.8314C110.776 25.8701 110.607 25.9052 110.4 25.9369C110.193 25.972 109.975 25.9896 109.747 25.9896C109.515 25.9896 109.322 25.958 109.167 25.8947C109.015 25.8314 108.894 25.7435 108.804 25.631C108.714 25.5149 108.65 25.3778 108.612 25.2196C108.574 25.0613 108.555 24.8873 108.555 24.6974V23.1521H109.327V24.6025C109.327 24.8556 109.36 25.0385 109.426 25.151C109.491 25.2635 109.614 25.3198 109.794 25.3198C109.849 25.3198 109.908 25.318 109.97 25.3145C110.032 25.3075 110.087 25.3004 110.136 25.2934V23.1521H110.908V25.8314Z" fill="#555555"/>
<path d="M112.254 24.5392C112.254 24.3388 112.285 24.1507 112.348 23.9748C112.413 23.7955 112.507 23.6408 112.627 23.5107C112.748 23.3771 112.895 23.2716 113.068 23.1943C113.241 23.1169 113.438 23.0782 113.659 23.0782C113.804 23.0782 113.937 23.0923 114.058 23.1204C114.179 23.145 114.296 23.1819 114.41 23.2312L114.249 23.8588C114.177 23.8307 114.097 23.8061 114.011 23.785C113.925 23.7639 113.828 23.7533 113.721 23.7533C113.493 23.7533 113.322 23.8254 113.208 23.9696C113.097 24.1137 113.042 24.3036 113.042 24.5392C113.042 24.7888 113.094 24.9822 113.197 25.1194C113.305 25.2565 113.489 25.3251 113.752 25.3251C113.845 25.3251 113.945 25.3163 114.052 25.2987C114.16 25.2811 114.258 25.253 114.348 25.2143L114.457 25.8578C114.367 25.8964 114.255 25.9298 114.12 25.958C113.985 25.9861 113.837 26.0002 113.674 26.0002C113.425 26.0002 113.211 25.9632 113.032 25.8894C112.852 25.812 112.703 25.7083 112.586 25.5782C112.472 25.4481 112.387 25.2952 112.332 25.1194C112.28 24.94 112.254 24.7466 112.254 24.5392Z" fill="#555555"/>
<path d="M116.636 25.3778C116.712 25.3778 116.785 25.376 116.854 25.3725C116.923 25.369 116.978 25.3637 117.02 25.3567V24.7607C116.989 24.7537 116.942 24.7466 116.88 24.7396C116.818 24.7326 116.761 24.7291 116.709 24.7291C116.636 24.7291 116.567 24.7343 116.501 24.7449C116.439 24.7519 116.384 24.7677 116.336 24.7924C116.287 24.817 116.249 24.8504 116.222 24.8926C116.194 24.9348 116.18 24.9875 116.18 25.0508C116.18 25.1739 116.22 25.26 116.299 25.3092C116.382 25.3549 116.495 25.3778 116.636 25.3778ZM116.574 23.0782C116.802 23.0782 116.992 23.1046 117.144 23.1573C117.296 23.2101 117.417 23.2857 117.507 23.3841C117.6 23.4826 117.666 23.6021 117.704 23.7428C117.742 23.8834 117.761 24.0399 117.761 24.2122V25.8472C117.65 25.8718 117.496 25.9 117.299 25.9316C117.103 25.9668 116.864 25.9843 116.584 25.9843C116.408 25.9843 116.248 25.9685 116.102 25.9369C115.961 25.9052 115.838 25.8542 115.735 25.7839C115.631 25.7101 115.551 25.6151 115.496 25.4991C115.441 25.3831 115.413 25.2407 115.413 25.0719C115.413 24.9102 115.444 24.773 115.507 24.6605C115.572 24.548 115.659 24.4583 115.766 24.3915C115.873 24.3247 115.995 24.2772 116.134 24.2491C116.272 24.2175 116.415 24.2016 116.564 24.2016C116.664 24.2016 116.752 24.2069 116.828 24.2175C116.907 24.2245 116.971 24.235 117.02 24.2491V24.1753C117.02 24.0417 116.98 23.9344 116.9 23.8535C116.821 23.7727 116.683 23.7322 116.486 23.7322C116.355 23.7322 116.225 23.7428 116.097 23.7639C115.969 23.7815 115.859 23.8078 115.766 23.843L115.667 23.2101C115.712 23.196 115.767 23.1819 115.833 23.1679C115.902 23.1503 115.976 23.1362 116.056 23.1257C116.135 23.1116 116.218 23.1011 116.305 23.094C116.394 23.0835 116.484 23.0782 116.574 23.0782Z" fill="#555555"/>
<path d="M119.184 22.4611L119.956 22.3346V23.1521H120.884V23.8061H119.956V24.7818C119.956 24.9471 119.984 25.0789 120.039 25.1774C120.098 25.2758 120.214 25.3251 120.387 25.3251C120.469 25.3251 120.554 25.318 120.64 25.304C120.73 25.2864 120.811 25.2635 120.884 25.2354L120.993 25.8472C120.9 25.8859 120.796 25.9193 120.682 25.9474C120.568 25.9756 120.428 25.9896 120.262 25.9896C120.051 25.9896 119.877 25.9615 119.739 25.9052C119.601 25.8455 119.49 25.7646 119.407 25.6626C119.324 25.5571 119.266 25.4305 119.231 25.2829C119.2 25.1352 119.184 24.9717 119.184 24.7924V22.4611Z" fill="#555555"/>
<path d="M123.036 25.9263H122.264V23.1521H123.036V25.9263ZM123.109 22.3504C123.109 22.4945 123.062 22.6088 122.969 22.6932C122.879 22.7741 122.772 22.8145 122.648 22.8145C122.523 22.8145 122.414 22.7741 122.321 22.6932C122.231 22.6088 122.186 22.4945 122.186 22.3504C122.186 22.2062 122.231 22.0937 122.321 22.0128C122.414 21.9284 122.523 21.8862 122.648 21.8862C122.772 21.8862 122.879 21.9284 122.969 22.0128C123.062 22.0937 123.109 22.2062 123.109 22.3504Z" fill="#555555"/>
<path d="M127.063 24.5339C127.063 24.7519 127.032 24.9523 126.97 25.1352C126.907 25.3145 126.818 25.4692 126.7 25.5993C126.583 25.7259 126.441 25.8244 126.275 25.8947C126.113 25.965 125.93 26.0002 125.726 26.0002C125.526 26.0002 125.343 25.965 125.177 25.8947C125.014 25.8244 124.874 25.7259 124.757 25.5993C124.639 25.4692 124.548 25.3145 124.482 25.1352C124.417 24.9523 124.384 24.7519 124.384 24.5339C124.384 24.3159 124.417 24.1173 124.482 23.9379C124.551 23.7586 124.645 23.6056 124.762 23.4791C124.883 23.3525 125.025 23.254 125.187 23.1837C125.353 23.1134 125.533 23.0782 125.726 23.0782C125.923 23.0782 126.103 23.1134 126.265 23.1837C126.431 23.254 126.572 23.3525 126.69 23.4791C126.807 23.6056 126.899 23.7586 126.964 23.9379C127.03 24.1173 127.063 24.3159 127.063 24.5339ZM126.275 24.5339C126.275 24.2913 126.227 24.1014 126.13 23.9643C126.037 23.8237 125.902 23.7533 125.726 23.7533C125.55 23.7533 125.413 23.8237 125.317 23.9643C125.22 24.1014 125.171 24.2913 125.171 24.5339C125.171 24.7765 125.22 24.9699 125.317 25.1141C125.413 25.2547 125.55 25.3251 125.726 25.3251C125.902 25.3251 126.037 25.2547 126.13 25.1141C126.227 24.9699 126.275 24.7765 126.275 24.5339Z" fill="#555555"/>
<path d="M128.412 23.247C128.544 23.2083 128.713 23.1732 128.92 23.1415C129.127 23.1064 129.345 23.0888 129.573 23.0888C129.805 23.0888 129.996 23.1204 130.148 23.1837C130.304 23.2435 130.426 23.3296 130.516 23.4421C130.606 23.5547 130.67 23.6883 130.708 23.843C130.746 23.9977 130.765 24.17 130.765 24.3599V25.9263H129.993V24.4548C129.993 24.2016 129.96 24.0223 129.894 23.9168C129.829 23.8113 129.706 23.7586 129.526 23.7586C129.471 23.7586 129.412 23.7621 129.35 23.7692C129.288 23.7727 129.233 23.7779 129.184 23.785V25.9263H128.412V23.247Z" fill="#555555"/>
<path d="M135.341 22.2291C135.877 22.2291 136.288 22.3258 136.574 22.5192C136.861 22.709 137.005 23.022 137.005 23.458C137.005 23.8975 136.859 24.2157 136.569 24.4126C136.279 24.606 135.865 24.7027 135.326 24.7027H135.072V25.9263H134.263V22.324C134.439 22.2888 134.626 22.2642 134.823 22.2502C135.02 22.2361 135.193 22.2291 135.341 22.2291ZM135.393 22.9305C135.334 22.9305 135.275 22.9323 135.217 22.9358C135.161 22.9393 135.113 22.9428 135.072 22.9464V24.0012H135.326C135.605 24.0012 135.816 23.9625 135.958 23.8852C136.099 23.8078 136.17 23.6637 136.17 23.4527C136.17 23.3507 136.151 23.2663 136.113 23.1995C136.079 23.1327 136.027 23.08 135.958 23.0413C135.892 22.9991 135.811 22.971 135.714 22.9569C135.617 22.9393 135.51 22.9305 135.393 22.9305Z" fill="#555555"/>
<path d="M139.386 25.9791C139.161 25.9756 138.978 25.9509 138.837 25.9052C138.698 25.8595 138.588 25.7962 138.505 25.7154C138.426 25.631 138.37 25.5308 138.339 25.4147C138.312 25.2952 138.298 25.1616 138.298 25.0139V21.9601L139.07 21.8335V24.8556C139.07 24.926 139.075 24.9893 139.085 25.0455C139.096 25.1018 139.115 25.1493 139.142 25.1879C139.173 25.2266 139.217 25.2583 139.272 25.2829C139.327 25.3075 139.401 25.3233 139.495 25.3303L139.386 25.9791Z" fill="#555555"/>
<path d="M141.806 25.3778C141.882 25.3778 141.955 25.376 142.024 25.3725C142.093 25.369 142.148 25.3637 142.19 25.3567V24.7607C142.159 24.7537 142.112 24.7466 142.05 24.7396C141.988 24.7326 141.931 24.7291 141.879 24.7291C141.806 24.7291 141.737 24.7343 141.671 24.7449C141.609 24.7519 141.554 24.7677 141.506 24.7924C141.457 24.817 141.419 24.8504 141.392 24.8926C141.364 24.9348 141.35 24.9875 141.35 25.0508C141.35 25.1739 141.39 25.26 141.469 25.3092C141.552 25.3549 141.664 25.3778 141.806 25.3778ZM141.744 23.0782C141.972 23.0782 142.162 23.1046 142.314 23.1573C142.466 23.2101 142.587 23.2857 142.677 23.3841C142.77 23.4826 142.836 23.6021 142.874 23.7428C142.912 23.8834 142.931 24.0399 142.931 24.2122V25.8472C142.82 25.8718 142.666 25.9 142.469 25.9316C142.273 25.9668 142.034 25.9843 141.754 25.9843C141.578 25.9843 141.417 25.9685 141.272 25.9369C141.131 25.9052 141.008 25.8542 140.904 25.7839C140.801 25.7101 140.721 25.6151 140.666 25.4991C140.611 25.3831 140.583 25.2407 140.583 25.0719C140.583 24.9102 140.614 24.773 140.676 24.6605C140.742 24.548 140.828 24.4583 140.936 24.3915C141.043 24.3247 141.165 24.2772 141.303 24.2491C141.442 24.2175 141.585 24.2016 141.734 24.2016C141.834 24.2016 141.922 24.2069 141.998 24.2175C142.077 24.2245 142.141 24.235 142.19 24.2491V24.1753C142.19 24.0417 142.15 23.9344 142.07 23.8535C141.991 23.7727 141.853 23.7322 141.656 23.7322C141.525 23.7322 141.395 23.7428 141.267 23.7639C141.139 23.7815 141.029 23.8078 140.936 23.843L140.837 23.2101C140.882 23.196 140.937 23.1819 141.003 23.1679C141.072 23.1503 141.146 23.1362 141.226 23.1257C141.305 23.1116 141.388 23.1011 141.474 23.094C141.564 23.0835 141.654 23.0782 141.744 23.0782Z" fill="#555555"/>
<path d="M144.354 22.4611L145.126 22.3346V23.1521H146.054V23.8061H145.126V24.7818C145.126 24.9471 145.154 25.0789 145.209 25.1774C145.268 25.2758 145.384 25.3251 145.556 25.3251C145.639 25.3251 145.724 25.318 145.81 25.304C145.9 25.2864 145.981 25.2635 146.054 25.2354L146.163 25.8472C146.069 25.8859 145.966 25.9193 145.852 25.9474C145.738 25.9756 145.598 25.9896 145.432 25.9896C145.221 25.9896 145.047 25.9615 144.909 25.9052C144.771 25.8455 144.66 25.7646 144.577 25.6626C144.494 25.5571 144.435 25.4305 144.401 25.2829C144.37 25.1352 144.354 24.9717 144.354 24.7924V22.4611Z" fill="#555555"/>
<path d="M148.616 21.8335C148.761 21.8335 148.894 21.8493 149.015 21.881C149.135 21.9091 149.229 21.9372 149.294 21.9654L149.144 22.593C149.075 22.5613 148.999 22.5385 148.916 22.5244C148.837 22.5068 148.762 22.4981 148.693 22.4981C148.6 22.4981 148.521 22.5121 148.455 22.5402C148.393 22.5649 148.343 22.6 148.305 22.6457C148.27 22.6914 148.244 22.7459 148.227 22.8092C148.213 22.8725 148.206 22.9411 148.206 23.0149V23.1521H149.16V23.8061H148.206V25.9263H147.434V23.0044C147.434 22.6457 147.533 22.3609 147.729 22.15C147.93 21.939 148.225 21.8335 148.616 21.8335Z" fill="#555555"/>
<path d="M152.881 24.5339C152.881 24.7519 152.849 24.9523 152.787 25.1352C152.725 25.3145 152.635 25.4692 152.518 25.5993C152.4 25.7259 152.259 25.8244 152.093 25.8947C151.931 25.965 151.747 26.0002 151.544 26.0002C151.343 26.0002 151.16 25.965 150.994 25.8947C150.832 25.8244 150.692 25.7259 150.575 25.5993C150.457 25.4692 150.366 25.3145 150.3 25.1352C150.234 24.9523 150.202 24.7519 150.202 24.5339C150.202 24.3159 150.234 24.1173 150.3 23.9379C150.369 23.7586 150.462 23.6056 150.58 23.4791C150.701 23.3525 150.842 23.254 151.005 23.1837C151.171 23.1134 151.35 23.0782 151.544 23.0782C151.741 23.0782 151.92 23.1134 152.083 23.1837C152.248 23.254 152.39 23.3525 152.507 23.4791C152.625 23.6056 152.716 23.7586 152.782 23.9379C152.848 24.1173 152.881 24.3159 152.881 24.5339ZM152.093 24.5339C152.093 24.2913 152.045 24.1014 151.948 23.9643C151.855 23.8237 151.72 23.7533 151.544 23.7533C151.367 23.7533 151.231 23.8237 151.134 23.9643C151.038 24.1014 150.989 24.2913 150.989 24.5339C150.989 24.7765 151.038 24.9699 151.134 25.1141C151.231 25.2547 151.367 25.3251 151.544 25.3251C151.72 25.3251 151.855 25.2547 151.948 25.1141C152.045 24.9699 152.093 24.7765 152.093 24.5339Z" fill="#555555"/>
<path d="M155.873 23.8483C155.804 23.8307 155.722 23.8131 155.629 23.7955C155.536 23.7744 155.436 23.7639 155.329 23.7639C155.28 23.7639 155.222 23.7692 155.152 23.7797C155.087 23.7867 155.037 23.7955 155.002 23.8061V25.9263H154.23V23.2997C154.368 23.2505 154.531 23.2048 154.717 23.1626C154.907 23.1169 155.118 23.094 155.349 23.094C155.391 23.094 155.441 23.0976 155.5 23.1046C155.558 23.1081 155.617 23.1151 155.676 23.1257C155.735 23.1327 155.793 23.1433 155.852 23.1573C155.911 23.1679 155.961 23.1819 156.002 23.1995L155.873 23.8483Z" fill="#555555"/>
<path d="M158.665 24.4548C158.665 24.2016 158.632 24.0223 158.567 23.9168C158.504 23.8113 158.396 23.7586 158.24 23.7586C158.192 23.7586 158.142 23.7621 158.09 23.7692C158.038 23.7727 157.988 23.7779 157.94 23.785V25.9263H157.168V23.247C157.233 23.2294 157.309 23.2118 157.396 23.1943C157.485 23.1732 157.579 23.1556 157.675 23.1415C157.776 23.1239 157.877 23.1116 157.981 23.1046C158.085 23.094 158.187 23.0888 158.287 23.0888C158.484 23.0888 158.643 23.1151 158.764 23.1679C158.888 23.2171 158.99 23.2769 159.069 23.3472C159.18 23.2663 159.306 23.203 159.448 23.1573C159.593 23.1116 159.726 23.0888 159.847 23.0888C160.064 23.0888 160.242 23.1204 160.38 23.1837C160.522 23.2435 160.634 23.3296 160.717 23.4421C160.8 23.5547 160.857 23.6883 160.888 23.843C160.919 23.9977 160.935 24.17 160.935 24.3599V25.9263H160.163V24.4548C160.163 24.2016 160.13 24.0223 160.064 23.9168C160.002 23.8113 159.893 23.7586 159.738 23.7586C159.696 23.7586 159.638 23.7692 159.562 23.7902C159.489 23.8113 159.429 23.8377 159.38 23.8694C159.404 23.9502 159.42 24.0364 159.427 24.1278C159.434 24.2157 159.437 24.3106 159.437 24.4126V25.9263H158.665V24.4548Z" fill="#555555"/>
</svg>
